# xmcd
#
# Track frame offsets: 
#        150
#        29455
#        60255
#        101740
#        130535
#        155400
#        191007
#        225950
#        268072
#
# Disc length: 4198 seconds
#
# Revision: 2
# Processed by: cddbd v1.5.2PL0 Copyright (c) Steve Scherf et al.
# Submitted via: ExactAudioCopy v1.3
#
DISCID=6b106409
DTITLE=秋吉敏子／ルー・タバキンビッグバンド - ベスト・オブ・秋吉敏子
DYEAR=2002
DGENRE=Jazz
TTITLE0=ロング・イエロー・ロード
TTITLE1=孤軍
TTITLE2=エレジー
TTITLE3=カドリール・エニワン
TTITLE4=チルドレン・イン・ザ・テンプル・グラウン
TTITLE5=すみ絵
TTITLE6=タヌキの夜遊び
TTITLE7=チェイシング・アフター・ラヴ
TTITLE8=デューク・フォー・ジ・エイジズ
EXTD=YEAR: 2002
EXTT0=
EXTT1=
EXTT2=
EXTT3=
EXTT4=
EXTT5=
EXTT6=
EXTT7=
EXTT8=
PLAYORDER=
